<?xml version="1.0" encoding="UTF-8"?>
<svg version="1.1" xmlns="http://www.w3.org/2000/svg" width="100" height="100">
<path d="M0 0 C0.75055664 -0.00700928 1.50111328 -0.01401855 2.27441406 -0.02124023 C4.7354115 -0.03872892 7.19524253 -0.02723094 9.65625 -0.01367188 C11.37825743 -0.01636944 13.10026338 -0.02025405 14.82226562 -0.02526855 C18.42332527 -0.03115122 22.0239868 -0.02264069 25.625 -0.00390625 C30.22839042 0.01888281 34.83084786 0.00575307 39.4342041 -0.01819611 C42.98770102 -0.03268761 46.54097871 -0.0280328 50.09448242 -0.01768494 C51.7912609 -0.0150269 53.48805964 -0.01825478 55.18481445 -0.02760315 C57.56124177 -0.03782456 59.93618269 -0.02219189 62.3125 0 C63.35229004 -0.01214539 63.35229004 -0.01214539 64.41308594 -0.02453613 C69.52827964 0.06344017 73.27658668 1.23953585 77.15625 4.51757812 C80.95964665 9.01901442 81.7416857 13.5519093 81.67382812 19.36132812 C81.6808374 20.11188477 81.68784668 20.86244141 81.69506836 21.63574219 C81.71255704 24.09673962 81.70105907 26.55657066 81.6875 29.01757812 C81.69019756 30.73958556 81.69408218 32.4615915 81.69909668 34.18359375 C81.70497934 37.78465339 81.69646881 41.38531493 81.67773438 44.98632812 C81.65494531 49.58971855 81.66807506 54.19217599 81.69202423 58.79553223 C81.70651574 62.34902914 81.70186093 65.90230683 81.69151306 69.45581055 C81.68885502 71.15258903 81.6920829 72.84938777 81.70143127 74.54614258 C81.71165269 76.92256989 81.69602001 79.29751081 81.67382812 81.67382812 C81.68192505 82.36702148 81.69002197 83.06021484 81.69836426 83.77441406 C81.61038795 88.88960776 80.43429228 92.6379148 77.15625 96.51757812 C72.65481371 100.32097477 68.12191883 101.10301383 62.3125 101.03515625 C61.56194336 101.04216553 60.81138672 101.0491748 60.03808594 101.05639648 C57.5770885 101.07388517 55.11725747 101.06238719 52.65625 101.04882812 C50.93424257 101.05152569 49.21223662 101.0554103 47.49023438 101.0604248 C43.88917473 101.06630747 40.2885132 101.05779694 36.6875 101.0390625 C32.08410958 101.01627344 27.48165214 101.02940318 22.8782959 101.05335236 C19.32479898 101.06784386 15.77152129 101.06318905 12.21801758 101.05284119 C10.5212391 101.05018315 8.82444036 101.05341103 7.12768555 101.0627594 C4.75125823 101.07298081 2.37631731 101.05734814 0 101.03515625 C-0.69319336 101.04325317 -1.38638672 101.0513501 -2.10058594 101.05969238 C-7.21577964 100.97171608 -10.96408668 99.7956204 -14.84375 96.51757812 C-18.64714665 92.01614183 -19.4291857 87.48324695 -19.36132812 81.67382812 C-19.3683374 80.92327148 -19.37534668 80.17271484 -19.38256836 79.39941406 C-19.40005704 76.93841663 -19.38855907 74.47858559 -19.375 72.01757812 C-19.37769756 70.29557069 -19.38158218 68.57356475 -19.38659668 66.8515625 C-19.39247934 63.25050286 -19.38396881 59.64984132 -19.36523438 56.04882812 C-19.34244531 51.4454377 -19.35557506 46.84298026 -19.37952423 42.23962402 C-19.39401574 38.68612711 -19.38936093 35.13284942 -19.37901306 31.5793457 C-19.37635502 29.88256722 -19.3795829 28.18576848 -19.38893127 26.48901367 C-19.39915269 24.11258636 -19.38352001 21.73764544 -19.36132812 19.36132812 C-19.36942505 18.66813477 -19.37752197 17.97494141 -19.38586426 17.26074219 C-19.29788795 12.14554849 -18.12179228 8.39724145 -14.84375 4.51757812 C-10.34231371 0.71418148 -5.80941883 -0.06785758 0 0 Z " fill="#2F2F2F" transform="translate(18.84375,-0.517578125)"/>
<path d="M0 0 C0.75055664 -0.00700928 1.50111328 -0.01401855 2.27441406 -0.02124023 C4.7354115 -0.03872892 7.19524253 -0.02723094 9.65625 -0.01367188 C11.37825743 -0.01636944 13.10026338 -0.02025405 14.82226562 -0.02526855 C18.42332527 -0.03115122 22.0239868 -0.02264069 25.625 -0.00390625 C30.22839042 0.01888281 34.83084786 0.00575307 39.4342041 -0.01819611 C42.98770102 -0.03268761 46.54097871 -0.0280328 50.09448242 -0.01768494 C51.7912609 -0.0150269 53.48805964 -0.01825478 55.18481445 -0.02760315 C57.56124177 -0.03782456 59.93618269 -0.02219189 62.3125 0 C63.35229004 -0.01214539 63.35229004 -0.01214539 64.41308594 -0.02453613 C69.52827964 0.06344017 73.27658668 1.23953585 77.15625 4.51757812 C80.95964665 9.01901442 81.7416857 13.5519093 81.67382812 19.36132812 C81.6808374 20.11188477 81.68784668 20.86244141 81.69506836 21.63574219 C81.71255704 24.09673962 81.70105907 26.55657066 81.6875 29.01757812 C81.69019756 30.73958556 81.69408218 32.4615915 81.69909668 34.18359375 C81.70497934 37.78465339 81.69646881 41.38531493 81.67773438 44.98632812 C81.65494531 49.58971855 81.66807506 54.19217599 81.69202423 58.79553223 C81.70651574 62.34902914 81.70186093 65.90230683 81.69151306 69.45581055 C81.68885502 71.15258903 81.6920829 72.84938777 81.70143127 74.54614258 C81.71165269 76.92256989 81.69602001 79.29751081 81.67382812 81.67382812 C81.68192505 82.36702148 81.69002197 83.06021484 81.69836426 83.77441406 C81.61038795 88.88960776 80.43429228 92.6379148 77.15625 96.51757812 C72.65481371 100.32097477 68.12191883 101.10301383 62.3125 101.03515625 C61.56194336 101.04216553 60.81138672 101.0491748 60.03808594 101.05639648 C57.5770885 101.07388517 55.11725747 101.06238719 52.65625 101.04882812 C50.93424257 101.05152569 49.21223662 101.0554103 47.49023438 101.0604248 C43.88917473 101.06630747 40.2885132 101.05779694 36.6875 101.0390625 C32.08410958 101.01627344 27.48165214 101.02940318 22.8782959 101.05335236 C19.32479898 101.06784386 15.77152129 101.06318905 12.21801758 101.05284119 C10.5212391 101.05018315 8.82444036 101.05341103 7.12768555 101.0627594 C4.75125823 101.07298081 2.37631731 101.05734814 0 101.03515625 C-0.69319336 101.04325317 -1.38638672 101.0513501 -2.10058594 101.05969238 C-7.21577964 100.97171608 -10.96408668 99.7956204 -14.84375 96.51757812 C-18.64714665 92.01614183 -19.4291857 87.48324695 -19.36132812 81.67382812 C-19.3683374 80.92327148 -19.37534668 80.17271484 -19.38256836 79.39941406 C-19.40005704 76.93841663 -19.38855907 74.47858559 -19.375 72.01757812 C-19.37769756 70.29557069 -19.38158218 68.57356475 -19.38659668 66.8515625 C-19.39247934 63.25050286 -19.38396881 59.64984132 -19.36523438 56.04882812 C-19.34244531 51.4454377 -19.35557506 46.84298026 -19.37952423 42.23962402 C-19.39401574 38.68612711 -19.38936093 35.13284942 -19.37901306 31.5793457 C-19.37635502 29.88256722 -19.3795829 28.18576848 -19.38893127 26.48901367 C-19.39915269 24.11258636 -19.38352001 21.73764544 -19.36132812 19.36132812 C-19.36942505 18.66813477 -19.37752197 17.97494141 -19.38586426 17.26074219 C-19.29788795 12.14554849 -18.12179228 8.39724145 -14.84375 4.51757812 C-10.34231371 0.71418148 -5.80941883 -0.06785758 0 0 Z M-14.21875 8.01757812 C-16.99306599 12.28575658 -16.98311976 15.64901426 -17.02075195 20.64770508 C-17.02732315 21.37002319 -17.03389435 22.09234131 -17.04066467 22.83654785 C-17.06037073 25.22631945 -17.07205404 27.61602829 -17.08203125 30.00585938 C-17.08610678 30.82306143 -17.0901823 31.64026348 -17.09438133 32.48222923 C-17.11523031 36.8074048 -17.12953724 41.13254875 -17.13891602 45.45776367 C-17.14997981 49.92002386 -17.18438237 54.3817853 -17.22408772 58.84386921 C-17.2502584 62.27974868 -17.25860822 65.71550935 -17.26219749 69.15147972 C-17.26706208 70.79608721 -17.2786725 72.44068944 -17.29723549 74.08519936 C-17.32163831 76.39028873 -17.32066056 78.69408802 -17.3137207 80.99926758 C-17.31958694 82.30926224 -17.32545319 83.6192569 -17.33149719 84.96894836 C-16.57328181 90.48538334 -14.25628208 93.32807947 -10.06066895 96.86122131 C-6.22125066 98.83809631 -3.67988878 99.018737 0.62695312 99.01928711 C1.34970932 99.02469009 2.07246552 99.03009308 2.81712341 99.03565979 C5.19100712 99.04810178 7.56366712 99.03168767 9.9375 99.01367188 C11.59606998 99.01382697 13.25464032 99.01531769 14.91320801 99.01808167 C18.38322034 99.01946362 21.85281832 99.00694202 25.32275391 98.98413086 C29.76137418 98.95574664 34.19930641 98.95848618 38.6379776 98.97122097 C42.06103346 98.97818978 45.48393146 98.97037519 48.90696716 98.95796394 C50.54316095 98.95346111 52.17937175 98.9531024 53.81556702 98.95702934 C56.10591121 98.95995345 58.39532105 98.94337871 60.68554688 98.92163086 C61.98649292 98.91622787 63.28743896 98.91082489 64.62780762 98.90525818 C69.73384184 98.3442436 72.98903442 96.77943281 76.46875 93.01757812 C79.33486807 88.77147728 79.29544404 85.40948352 79.33325195 80.38745117 C79.33982315 79.66513306 79.34639435 78.94281494 79.35316467 78.1986084 C79.37287073 75.8088368 79.38455404 73.41912796 79.39453125 71.02929688 C79.39860678 70.21209482 79.4026823 69.39489277 79.40688133 68.55292702 C79.42773031 64.22775145 79.44203724 59.9026075 79.45141602 55.57739258 C79.46247981 51.11513239 79.49688237 46.65337095 79.53658772 42.19128704 C79.5627584 38.75540757 79.57110822 35.3196469 79.57469749 31.88367653 C79.57956208 30.23906904 79.5911725 28.59446681 79.60973549 26.94995689 C79.63413831 24.64486752 79.63316056 22.34106823 79.6262207 20.03588867 C79.63502007 18.07089668 79.63502007 18.07089668 79.64399719 16.06620789 C78.96068547 11.09473831 76.82886949 7.98745586 73.09375 4.70507812 C69.1545989 2.29075971 65.74639136 2.38076885 61.22558594 2.35644531 C60.52438126 2.35148041 59.82317657 2.3465155 59.10072327 2.34140015 C56.78068051 2.32679503 54.46070618 2.31997841 52.140625 2.31445312 C50.52500406 2.30869921 48.90938312 2.3029415 47.29376221 2.29718018 C43.90433433 2.28667412 40.51493015 2.28082923 37.12548828 2.27734375 C32.79344986 2.27186747 28.46172708 2.24785652 24.12978745 2.2193718 C20.79080305 2.20069637 17.45189384 2.19553716 14.11286163 2.19400787 C12.51654591 2.19099061 10.92023122 2.18299347 9.32396698 2.16982269 C7.0839021 2.15266306 4.84459711 2.15466639 2.60449219 2.16113281 C0.69612579 2.15566437 0.69612579 2.15566437 -1.25079346 2.15008545 C-6.54694641 2.69178346 -10.46821644 4.06964806 -14.21875 8.01757812 Z " fill="#515151" transform="translate(18.84375,-0.517578125)"/>
<path d="M0 0 C1.79244141 0.01740234 1.79244141 0.01740234 3.62109375 0.03515625 C5.41740234 0.04869141 5.41740234 0.04869141 7.25 0.0625 C8.17683594 0.07410156 9.10367188 0.08570312 10.05859375 0.09765625 C10.05859375 1.74765625 10.05859375 3.39765625 10.05859375 5.09765625 C15.66859375 5.09765625 21.27859375 5.09765625 27.05859375 5.09765625 C27.05859375 6.41765625 27.05859375 7.73765625 27.05859375 9.09765625 C21.44859375 9.09765625 15.83859375 9.09765625 10.05859375 9.09765625 C11.53665307 13.5318342 12.72803044 16.2840072 15.05859375 20.09765625 C15.05859375 20.75765625 15.05859375 21.41765625 15.05859375 22.09765625 C13.40859375 22.42765625 11.75859375 22.75765625 10.05859375 23.09765625 C6.05859375 16.34765625 6.05859375 16.34765625 6.05859375 14.09765625 C3.08859375 14.09765625 0.11859375 14.09765625 -2.94140625 14.09765625 C-4.25305467 11.47435941 -4.07403471 9.46067 -4.06640625 6.53515625 C-4.06898437 5.54386719 -4.0715625 4.55257812 -4.07421875 3.53125 C-3.87920556 -0.04207996 -3.63284892 0.12061251 0 0 Z " fill="#FBFBFB" transform="translate(29.94140625,30.90234375)"/>
<path d="M0 0 C10.05859375 -0.09765625 10.05859375 -0.09765625 13 0 C14 1 14 1 14.1328125 3.6875 C14.13023438 4.780625 14.12765625 5.87375 14.125 7 C14.12757812 8.093125 14.13015625 9.18625 14.1328125 10.3125 C14 13 14 13 13 14 C8.66469082 14.14393457 4.33842269 14.04212061 0 14 C0 9.38 0 4.76 0 0 Z " fill="#FCFCFC" transform="translate(60,31)"/>
<path d="M0 0 C1.093125 0.00257812 2.18625 0.00515625 3.3125 0.0078125 C4.405625 0.00523438 5.49875 0.00265625 6.625 0 C9.3125 0.1328125 9.3125 0.1328125 10.3125 1.1328125 C10.41123816 3.13080822 10.44221799 5.13238408 10.4375 7.1328125 C10.44007812 8.2259375 10.44265625 9.3190625 10.4453125 10.4453125 C10.3125 13.1328125 10.3125 13.1328125 9.3125 14.1328125 C7.31450428 14.23155066 5.31292842 14.26253049 3.3125 14.2578125 C2.219375 14.26039062 1.12625 14.26296875 0 14.265625 C-2.6875 14.1328125 -2.6875 14.1328125 -3.6875 13.1328125 C-3.78623816 11.13481678 -3.81721799 9.13324092 -3.8125 7.1328125 C-3.81507812 6.0396875 -3.81765625 4.9465625 -3.8203125 3.8203125 C-3.64172116 0.20646411 -3.61384839 0.17859134 0 0 Z " fill="#FEFEFE" transform="translate(46.6875,54.8671875)"/>
<path d="M0 0 C0.515625 0.2475 1.03125 0.495 1.5625 0.75 C0.5625 2.75 0.5625 2.75 -2.8125 4.125 C-6.43865733 5.75051881 -7.49375477 6.44563311 -9.4375 9.75 C-9.994375 10.6575 -10.55125 11.565 -11.125 12.5 C-11.558125 13.2425 -11.99125 13.985 -12.4375 14.75 C-13.1875 13.1875 -13.1875 13.1875 -13.4375 10.75 C-10.99536924 5.0516949 -7.04311193 -0.72237045 0 0 Z " fill="#414141" transform="translate(13.4375,0.25)"/>
<path d="M0 0 C1 3 1 3 -0.5 6.4375 C-2.97150071 10.49351684 -5.67755641 12.11384279 -10 14 C-10.99 13.67 -11.98 13.34 -13 13 C-12 11 -12 11 -9.125 9.625 C-4.90394516 7.43005148 -3.48472718 5.45418155 -2 1 C-1.34 0.67 -0.68 0.34 0 0 Z " fill="#414141" transform="translate(99,86)"/>
<path d="M0 0 C0.33 0.66 0.66 1.32 1 2 C1.66 2 2.32 2 3 2 C3.5775 2.9075 4.155 3.815 4.75 4.75 C7.15556631 8.22470689 9.47776229 9.758576 13 12 C13 12.66 13 13.32 13 14 C7.22117725 12.52169651 3.8327846 9.96736555 0.6875 4.875 C0 3 0 3 0 0 Z " fill="#414141" transform="translate(0,86)"/>
<path d="M0 0 C3.13238033 0.10801311 4.24785257 1.21834631 6.625 3.3125 C9.58818436 6.66557704 11 8.50991615 11 13 C10.34 13 9.68 13 9 13 C7.921875 11.35546875 7.921875 11.35546875 6.75 9.1875 C4.43380431 5.2810804 2.3392084 3.61458917 -2 2 C-1.34 1.34 -0.68 0.68 0 0 Z " fill="#414141" transform="translate(89,1)"/>
</svg>
